<?xml version="1.0" encoding="UTF-8"?>
<!-- Created with Inkscape (http://www.inkscape.org/) -->
<svg width="460" height="460" version="1.1" viewBox="0 0 460 460" xmlns="http://www.w3.org/2000/svg">
 <g>
  <path d="m82 447v-13h16v-12h16v-14h18v-5.8333l-2.5-1.1667 2.5-1.1667v-3.8333h20v-11.143l2.8571-2.8571h11.143v2h2v-7h4v-3h8v-2h-2v-2h4v-14h22v-14h-22v-11.143l-2.8571-2.8571h-17.143v-12h-12v-11.143l-2.8571-2.8571h-3.1429v-14h-14v-61.067l-3.4667-3.4667-3.4667-3.4667h-2.2642l-5.6048-6h-2.2298l-14.968-14.968v-67.032h-18v-8h2v-4h-2v-4h2v-5.8333l-2.5-1.1667 2.5-1.1667v-3.8333h6v-2h10v-12h16v-16h34v-4h-3.0323l-14.968-14.968v-5.0323h2v-8h16v13.143l2.8571 2.8571h46.286l2.8571-2.8571v-3.1429h-2v-24h16v14h82v16h32v46h6v-2h10v-16h2v-4h-2v-8h16v44h-16v14h34v42h20v14h-20v40h-2v34h-16v26h-16v14h-32v14h-16v11.143l2.8571 2.8571h13.143v14h16v26h16v12h16v11.143l2.8571 2.8571h15.143v12h20v14h22v38h-338zm32-322v-7h-16v14h16z" fill="#fefefe"/>
  <path d="m82 447v-13h16v-12h16v-14h18v-5.8333l-2.5-1.1667 2.5-1.1667v-3.8333h20v-11.143l2.8571-2.8571h11.143v2h2v-7h4v-3h8v-2h-2v-2h4v-14h22v-14h-22v-11.143l-2.8571-2.8571h-17.143v-12h-12v-11.143l-2.8571-2.8571h-3.1429v-14h-14v-61.067l-3.4667-3.4667-3.4667-3.4667h-2.2642l-5.6048-6h-2.2298l-14.968-14.968v-67.032h-18v-8h2v-4h-2v-4h2v-5.8333l-2.5-1.1667 2.5-1.1667v-3.8333h6v-2h10v-12h16v-16h34v-4h-3.0323l-14.968-14.968v-5.0323h2v-8h16v13.143l2.8571 2.8571h46.286l2.8571-2.8571v-3.1429h-2v-24h16v14h82v16h32v46h6v-2h10v-16h2v-4h-2v-8h16v44h-16v14h34v42h20v14h-20v40h-2v34h-16v26h-16v14h-32v14h-16v11.143l2.8571 2.8571h13.143v14h16v26h16v12h16v11.143l2.8571 2.8571h15.143v12h20v14h22v38h-176v-6h2v-32h-11v-2h-4.1429l-2.8571 2.8571v11.143h-14v14h-16v-28h-13.143l-2.8571 2.8571v11.143h-8v26h-92zm165.53-45.09 0.60612-1.9097h5.8652v-9.5585l-4-2.883v-3.5585h14v-14h-20v36.245l1.4613-1.2128 1.4613-1.2128zm-133.53-276.91v-7h-16v14h16z" fill="#f5cc9f"/>
  <path d="m82 447v-13h16v-12h16v-14h18v-5.8333l-2.5-1.1667 2.5-1.1667v-3.8333h20v-11.143l2.8571-2.8571h11.143v2h2v-7h4v-3h8v-2h-2v-2h4v-14h22v-14h-22v-11.143l-2.8571-2.8571h-17.143v-12h-12v-11.143l-2.8571-2.8571h-3.1429v-14h-14v-61.067l-3.4667-3.4667-3.4667-3.4667h-2.2642l-5.6048-6h-2.2298l-14.968-14.968v-67.032h-18v-8h2v-4h-2v-4h2v-5.8333l-2.5-1.1667 2.5-1.1667v-3.8333h6v-2h10v-12h16v-16h34v-4h-3.0323l-14.968-14.968v-5.0323h2v-8h16v13.143l2.8571 2.8571h46.286l2.8571-2.8571v-3.1429h-2v-24h16v14h82v16h32v46h6v-2h10v-16h2v-4h-2v-8h16v44h-16v14h34v42h20v14h-20v40h-2v34h-16v26h-16v14h-32v14h-16v11.143l2.8571 2.8571h13.143v14h16v26h16v12h16v11.143l2.8571 2.8571h15.143v12h20v14h22v38h-176v-6h2v-31.143l-2.8571-2.8571h-15.143v11.143l-2.8571 2.8571h-11.143v14h-16v-28h-13.143l-2.8571 2.8571v11.143h-8v26h-92zm165.53-45.09 0.60612-1.9097h5.8652v-9.5585l-4-2.883v-3.5585h14v-14h-20v36.245l1.4613-1.2128 1.4613-1.2128zm-65.529-86.91v-1h8v2h6v-6h-3.1976l-5.6048-6h-3.1976v-2h-3.1429l-2.8571-2.8571v-2.9762l-2.5-1.1667 2.5-1.1667v-5.8333h-3.882l-1.2361 2h-6.882v8h2v4h-2v6h4v6h10v2h2zm82-11.571v-10.571l-2.8571-2.8571h-9.1429v7.1298l-10.235 9.9688 0.75423 0.70065 0.75422 0.70065 0.89286-2.5h1.8333v4h-2v2h4v2h16zm-24 7.5714v-1h-2v2h2zm0-4v-1h-2v2h2zm-80-26.578v-7.5784l8-7.6864v-3.1568h6v-2h80v2h4v-4h4v-2h16v4h-4v8h-4v2h-6v2h4v2h-2v4h4v3.2654l4.5 4.0039-2.5 0.8974v1.8333h10v-28h11.143l2.8571-2.8571v-7.1429h-2v-4h2v-42h-4v-2h-23.143l-2.8571 2.8571v4.9762l-1.25 0.58334-1.25 0.58333 1.25 0.58333 1.25 0.58334v5.6667l-1.25 0.50721-1.25 0.5072 3 2.3045-2.5 1.0144v17.833h2v5.1429l-2.8571 2.8571h-19.143v-46h-16v-28h-30v-12h-46v4h-2v6h31.143l2.8571 2.8571v10.286l-2.8571 2.8571h-5.1429v4h6v8h-6v-6h-2v2h-6v-2h2v-2h-4v4h2v4h-3.6944l-2.1703 4.5-0.0677-1.25-0.06766-1.25h-5.8333l-1.1667 2.5-1.1667-2.5h-3.8333v2h-6v12h-4v17.833l2.5 1.1667-2.5 1.1667v15.833h2v17.833l-2.4821 0.82738 3.3393 3.3393h7.1429v14h10zm112-2.4216v-2h2v4h-2zm-6-29v-1h2v2h-2zm-103.25-1.6623 1.25-0.50439v-44.833h20v10h2v4h-2v29.143l-2.8571 2.8571-19.643-0.1578zm21.25-56.338v-1h2v2h-2zm86 96v-1h-4v2h4zm-8-22v-1h-2v2h2zm98-39v-8h-10v2h-22v8h24v2h4v4h4zm-96-25v-1h-2v-10h2v-2h-18v6h2v6h-2v2h18zm18-30v-1h-6v-4h-2v-4h-28v2h-4v-4h-12v2h4v2h-4v8h52zm-168-46v-7h-16v14h16z" fill="#f6c89d"/>
  <path d="m82 447v-13h16v-12h16v-14h18v-5.8333l-2.5-1.1667 2.5-1.1667v-3.8333h20v-11.143l2.8571-2.8571h11.143v2h2v-7h4v-3h8v-2h-2v-2h4v-14h22v-14h-22v-11.143l-2.8571-2.8571h-17.143v-12h-12v-11.143l-2.8571-2.8571h-3.1429v-14h-14v-61.067l-3.4667-3.4667-3.4667-3.4667h-2.2642l-5.6048-6h-2.2298l-14.968-14.968v-67.032h-18v-8h2v-4h-2v-4h2v-5.8333l-2.5-1.1667 2.5-1.1667v-3.8333h6v-2h10v-12h16v-16h34v-4h-3.0323l-14.968-14.968v-5.0323h2v-8h16v13.143l2.8571 2.8571h46.286l2.8571-2.8571v-3.1429h-2v-24h16v14h82v16h32v46h6v-2h10v-16h2v-4h-2v-8h16v44h-16v14h34v42h20v14h-20v40h-2v34h-16v26h-16v14h-32v14h-16v11.143l2.8571 2.8571h13.143v14h16v26h16v12h16v11.143l2.8571 2.8571h15.143v12h20v14h22v38h-176v-6h2v-32h-2v-14h-16v14h-14v26h-16v-14h2v-38h-2v24h-13.143l-2.8571 2.8571v11.143h-8v26h-92zm165.53-45.09 0.60612-1.9097h5.8652v-9.5585l-4-2.883v-3.5585h14v-14h-20v36.245l1.4613-1.2128 1.4613-1.2128zm-47.529-86.455v-0.54546l-2.4546-2.4545-2.4545-2.4546h-3.0909v-4h-4v-2h-3.0667l-6.9333-6.9333v-9.0667h-16v-15.053l8.9474-8.9474h3.0526v-2h86v5.5585l4 2.883v17.558h-14v9.0909l-4.9091 4.9091h-3.0909v2h-3.1976l-5.6048 6h-2.3404l-2.8571 2.8571v3.1429h36v-28h20v-26h12v-60h-29.143l-2.8571-2.8571v-11.143h-20v14h-13.143l-2.8571-2.8571v-27.143h54v-1.1568l-8-7.6864v-3.1568h-46v12h-28v-12h-47.091l-2.4545 2.4546-2.4546 2.4545v9.0909h4v-2h29.143l2.8571 2.8571v10.286l-2.8571 2.8571h-17.143v11.143l-2.8571 2.8571h-19.143v14h-2v58h10v14h12v24h3v4h35zm-36-90.455v-23h20v43.143l-2.8571 2.8571h-17.143zm80 0v-23h20v46h-20zm116 2v-9h-10v2h-22v8l21.5 0.0922 7 7.8156 3.5 0.09218zm-246-102v-7h-16v14h16z" fill="#a4b4aa"/>
  <path d="m82 447v-13h16v-12h16v-14h18v-5.8333l-2.5-1.1667 2.5-1.1667v-3.8333h20v-11.143l2.8571-2.8571h10.286l2.8571 2.8571v75.143h-86zm182-6v-19h18v-37.143l2.8571-2.8571h11.143v-12h8v-4h3.7444l1.2793-8h2.9764v-14h16v26h16v12h16v11.143l2.8571 2.8571h15.143v12h20v14h22v38h-156zm-64-19v-26h4v-54h-22v-11.143l-2.8571-2.8571h-17.143v-12h-12v-11.143l-2.8571-2.8571h-3.1429v-14h-14v-61.067l-3.4667-3.4667-3.4667-3.4667h-2.2642l-5.6048-6h-2.2298l-14.968-14.968v-67.032h-18v-8h2v-4h-2v-4h2v-5.8333l-2.5-1.1667 2.5-1.1667v-3.8333h6v-2h10v-12h16v-16h34v-4h-3.0323l-14.968-14.968v-5.0323h2v-8h16v13.143l2.8571 2.8571h46.286l2.8571-2.8571v-3.1429h-2v-24h16v14h82v16h32v46h6v-2h10v-16h2v-4h-2v-8h16v44h-16v14h34v42h20v14h-20v40h-2v34h-16v26h-16v14h-32v14h-16v40h-14v14h-38v38h-16v14h-14v14h-2v12h-12zm0-106.55v-0.54546l-2.4546-2.4545-2.4545-2.4546h-3.0909v-4h-4v-2h-3.0667l-6.9333-6.9333v-9.0667h-16v-15.053l8.9474-8.9474h3.0526v-2h86v5.5585l4 2.883v17.558h-14v9.0909l-4.9091 4.9091h-3.0909v2h-3.1976l-5.6048 6h-2.3404l-2.8571 2.8571v3.1429h36v-28h20v-26h12v-60h-29.143l-2.8571-2.8571v-11.143h-20v14h-13.143l-2.8571-2.8571v-27.143h54v-1.1568l-8-7.6864v-3.1568h-46v12h-28v-12h-47.091l-2.4545 2.4546-2.4546 2.4545v9.0909h4v-2h29.143l2.8571 2.8571v10.286l-2.8571 2.8571h-17.143v11.143l-2.8571 2.8571h-19.143v14h-2v58h10v14h12v24h3v4h35zm-36-90.455v-23h20v43.143l-2.8571 2.8571h-17.143zm80 0v-23h20v46h-20zm116 2v-9h-10v2h-22v8l21.5 0.0922 7 7.8156 3.5 0.09218zm-246-102v-7h-16v14h16z" fill="#e98d76"/>
  <path d="m82 447v-13h16v-12h16v-14h18v-5.8333l-2.5-1.1667 2.5-1.1667v-3.8333h20v-11.143l2.8571-2.8571h10.286l2.8571 2.8571v75.143h-86zm182-6v-19h18v-37.143l2.8571-2.8571h11.143v-12h8v-4h3.7444l1.2793-8h2.9764v-14h16v26h16v12h16v11.143l2.8571 2.8571h15.143v12h20v14h22v38h-156zm-64 0v-7h14v2h-2v12h-12zm4-73v-26h-22v-11.143l-2.8571-2.8571h-17.143v-12h-12v-11.143l-2.8571-2.8571h-3.1429v-14h18v-15.053l8.9474-8.9474h3.0526v-2h86v5.5585l4 2.883v17.558h20v-26h12v-2h8v-71.091l-2.4546-2.4545-2.4545-2.4546h-3.0909v-10h-7.5585l-2.883-4h-3.5585v-36h-15.143l-2.8571 2.8571v4.2338l-4.9091 4.9091h-13.091v11.143l-2.8571 2.8571h-15.143v4h-12v-1.5585l4-2.883v-3.117l4-2.883v-3.117l4-2.883v-3.5585h-46v-7.1429l-2.8571-2.8571h-14.286l-2.8571 2.8571v2.2095l-6.9333 6.9333h-5.0667v11.143l-2.8571 2.8571h-2.2857l-2.8571 2.8571v53.143h-12v10h-1.1976l-5.6048-6h-2.3952l-5.6048-6h-2.2298l-14.968-14.968v-67.032h-18v-8h2v-4h-2v-4h2v-5.8333l-2.5-1.1667 2.5-1.1667v-3.8333h6v-2h10v-12h16v-16h34v-4h-3.0323l-14.968-14.968v-5.0323h2v-8h16v13.143l2.8571 2.8571h46.286l2.8571-2.8571v-3.1429h-2v-24h16v14h82v16h32v46h6v-2h10v-16h2v-4h-2v-8h16v44h-16v14h34v42h20v14h-20v39.143l-2.8571 2.8571h-6.1955l-8.9474-8.9474v-3.0526h-10v2h-22v4h-2v3.1976l-6 5.6048v12.34l2.8571 2.8571h5.1429v-18h21.558l2.883 4h2.6494l4.9091 4.9091v21.091h16v2h-16v-2h-16v14h-22v-12h-18v26h40v14h-32v14h-30v14h-18v14h-40v28h-2v22h-18zm60-66v-14h-11.558l-2.883-4h-11.558v2h-4v2h-8v2h-10v2h-4v2h-3.1976l-5.6048 6h-3.1976v12h-4v-2h-4v-4h-4v-2h-3.0667l-6.9333-6.9333v-9.0667h-16v24h3v4h99zm-150-177v-7h-16v14h16zm16 160v-3h2v6h-2zm34-60v-23h20v43.143l-2.8571 2.8571h-17.143zm80 0v-23h20v46h-20zm-96-44v-7h4v-2h29.143l2.8571 2.8571v10.286l-2.8571 2.8571h-33.143zm80 0.42857v-6.5714l2.8571-2.8571h51.143v16h-54z" fill="#7e5152"/>
  <path d="m82 447v-13h16v-12h16v12h-16v26h-16zm68 0v-13h-2v-12h2v-3.1429l2.8571-2.8571h3.1429v-3.0909l4.9091-4.9091h7.0909v52h-18zm132 0v-13h-18v-12h18v12h14v-64h8v-4h3.7444l1.2793-8h2.9764v-14h16v26h16v12h16v11.143l2.8571 2.8571h15.143v12h20v14h22v38h-58v-9.0435l10.957-10.957h3.0435v-3.5585l4-2.883v-2.7153l8-7.6864v-1.1568h-10v-2h-16v-9.1429l-2.8571-2.8571h-33.143v12h-14v28h-16v12h-14zm-168-33v-6h16v12h-16zm18-8.9167v-2.9167l-2.5-1.1667 2.5-1.1667v-3.8333h15.143l2.8571 2.8571v9.1429h-18zm30-1.0833v-2h2v-6h4v10h-6zm-10-13.571v-5.5714l2.8571-2.8571h10.286l2.8571 2.8571v9.1429h-14v2h-2zm52-34.429v-14h-22v-11.143l-2.8571-2.8571h-17.143v-12h-12v-11.143l-2.8571-2.8571h-3.1429v-14h6v2h10v19.143l2.8571 2.8571h2.1429v4h99v-12h2v-14h18v-28h20v25.143l2.8571 2.8571h35.143v-2h2v14h-32v14h-30v12h-18v14h-40v25.143l-2.8571 2.8571h-17.143zm-11-48-1.4415-2h-3.117l-2.883-4h-3.5585v-4h-4v-10h-16v-15.091l4.9091-4.9091h3.0909v-4h4v-2h80v2h3.1429l2.8571 2.8571v2.7013l4 2.883v15.558h-12v-4h-16v2h-4v2h-10v2h-8v2h-4v2h-3.1976l-5.6048 6h-3.1976v10h-3.5585zm111-84.571v-36.571l-2.8571-2.8571h-2.2857l-2.8571-2.8571v-9.1429h-7.5585l-2.883-4h-3.5585v-34h-18v7.0909l-4.9091 4.9091h-15.091v12h-16v6h-10v-1.5585l4-2.883v-3.5585h2v-3.5585l4-2.883v-3.5585h2v-2h-48v-10h-20v3.0526l-8.9474 8.9474h-5.0526v11.143l-2.8571 2.8571h-3.1429v54h-9.1429l-2.8571 2.8571v9.1429h-1.1976l-5.6048-6h-2.3952l-5.6048-6h-2.2298l-14.968-14.968v-51.032h15.086l15.829-16h7.0856v-4h3.0435l10.957-10.957v-11.043h34v-4h-52v2h-5.0909l-2.4545 2.4546-2.4546 2.4545v2.1576l-6.9333 6.9333h-17.067v14h-18v-8h2v-4h-2v-4h2v-5.8333l-2.5-1.1667 2.5-1.1667v-3.8333h6v-2h10v-12h15.833l1.0144-2.5 2.3045 3 0.5072-1.25 0.50721-1.25h31.833v2h14v4h2v-2h2v4h14v-2h-8v-1.1429l1.6696-1.6696 1.6696-1.6696 0.82738 2.4821h5.8333v-2h22v-2h8v-14h13.143l2.8571-2.8571v-13.143h-32v14h-6v2h-4v-2h-6v2h-22v-2h-3.8333l-1.1667 2.5-1.1667-2.5h-3.8333v2h-2v-4h-3.0323l-14.968-14.968v-5.0323h2v-8h16v13.143l2.8571 2.8571h46.286l2.8571-2.8571v-3.1429h-2v-24h16v14h82v16h32v46h6v-2h10v-16h2v-4h-2v-8h16v44h-16v14h34v42h20v14h-20v40h-10v-2h-3.1429l-2.8571-2.8571v-2.2857l-2.8571-2.8571h-31.143v5.0909l-4.9091 4.9091h-3.0909v32h-16zm-8-98.429v-7h-14v14h14zm0-59v-8h-14v16h14zm-132 158v-22h18v44h-18zm80 0v-22h20v44h-20zm-94-43.571v-5.5714l2.8571-2.8571h29.143v14h-32zm78 0v-5.5714l2.8571-2.8571h51.143v14h-54zm-58-87.429v-1h2v2h-2z" fill="#34273d"/>
  <path d="m398 441v-19h20v38h-20zm-116 1.4286v-5.5714l2.8571-2.8571h11.143v14h-14zm-132-14.95v-6.5217l10.957-10.957h7.0435v24h-18zm116 0.52174v-6h16v12h-16zm112-14v-6h20v12h-20zm-16.75-7.4958-1.25-1.4198v-6.2273l2.8571-2.8571h13.143v12l-13.5-0.076zm-3.25-11.504v-1h-14v-10h16v12h-2zm-30-19v-6h16v12h-16zm-124-21v-13h-22v-11.143l-2.8571-2.8571h-17.143v-12h-12v-12h4v-2h6v7.1429l2.8571 2.8571h2.1429v4h15v8h4v2.75l6.25 1.25h49.444l4.306-3.7346v-8.2654h22v-14h18v-14h12v-26h8v28h40v12h-32v14h-30v12h-18v14h-42v26h-18zm-12-48-2.5-2.9402-1.2763-0.0299-1.2763-0.02992-8.9474-8.9474v-19.053h72v8h-14v2h-4v2h-10v2h-8v2h-4v2h-3.1976l-5.6048 6h-3.1976v10l-3.5-0.0598zm-48-11v-6h6v12h-6zm160-74v-38h-3.1429l-2.8571-2.8571v-6.2857l-2.8571-2.8571h-5.1429v-2h-4v-2h-4v-34h-18v5.5585l-4 2.883v3.5585h-16v9.1429l-2.8571 2.8571h-11.143v-14h-48v-10h-20v3.0526l-8.9474 8.9474h-5.0526v10h-2v4h-4v54h-12v12h-1.1298l-9.7403-10h-2.2727l-2.8571-2.8571v-64.239l14-13.807v-3.0966h8v-2h4v-4h4v-4h3.5585l2.883-4h35.558v2h4v4h2v6h33.558l2.883-4h2.7153l7.6864-8h25.157v-16h-12v-14h12v14h32v-14h-14v-14h14v14h8v2h3.8333l1.1667-2.5 1.1667 2.5h1.8333v-32h16v44h-32v4h-4v3.0909l-4.9091 4.9091h-2.2338l-2.8571 2.8571v17.143h14v26h16v-42h3.0966l13.807 14h47.097v39.143l2.8571 2.8571h19.143v12h-19.143l-2.8571 2.8571v39.143h-7.0667l-6.9333-6.9333v-3.0667h-33.143l-2.8571 2.8571v2.3404l-6 5.6048v31.198h-16zm-140 2v-22h18v44h-18zm80 0v-22h20v44h-20zm-94-43.571v-5.5714l2.8571-2.8571h29.143v14h-32zm80-1.4286v-7h52v14h-52zm-132-69v-8h21.067l6.9333-6.9333v-2.2095l2.8571-2.8571h17.143v1.0526l-8.9474 8.9474h-3.0526v2h-7.1429l-2.8571 2.8571v2.1863l-10.957 10.957h-15.043zm230 1v-7h15.143l2.8571-2.8571v-13.143h14v28h-12v2h-20zm-184-44-2.5-2.9402-2.5909-0.059821-4.9091-4.9091v-1.0909h16v12l-3.5-0.05982z" fill="#05081d"/>
 </g>
</svg>
